<mxfile host="app.diagrams.net" modified="2023-09-30T10:26:43.528Z" agent="Mozilla/5.0 (Windows NT 10.0; Win64; x64) AppleWebKit/537.36 (KHTML, like Gecko) Chrome/116.0.5845.2271 YaBrowser/23.9.0.2271 Yowser/2.5 Safari/537.36" etag="TBDmly7X_VUheVlzaXAW" version="21.8.2" type="device">
  <diagram name="Страница — 1" id="W-RfNjatiUV3gHGYHj1w">
    <mxGraphModel dx="555" dy="914" grid="1" gridSize="10" guides="1" tooltips="1" connect="1" arrows="1" fold="1" page="1" pageScale="1" pageWidth="827" pageHeight="1169" background="#FFFFFF" math="0" shadow="0">
      <root>
        <mxCell id="0" />
        <mxCell id="1" parent="0" />
        <mxCell id="zpZ7xPXNpuBqLRHUI2Ni-13" value="" style="ellipse;whiteSpace=wrap;html=1;aspect=fixed;strokeColor=#000000;fillColor=#FFFFFF;shadow=0;" parent="1" vertex="1">
          <mxGeometry x="120" y="400" width="80" height="80" as="geometry" />
        </mxCell>
        <mxCell id="zpZ7xPXNpuBqLRHUI2Ni-12" value="" style="endArrow=none;html=1;rounded=0;exitX=0;exitY=0.5;exitDx=0;exitDy=0;strokeColor=#000000;fillColor=#FFFFFF;shadow=0;" parent="1" source="zpZ7xPXNpuBqLRHUI2Ni-14" edge="1">
          <mxGeometry width="50" height="50" relative="1" as="geometry">
            <mxPoint x="200" y="439.96" as="sourcePoint" />
            <mxPoint x="120" y="440" as="targetPoint" />
          </mxGeometry>
        </mxCell>
        <mxCell id="zpZ7xPXNpuBqLRHUI2Ni-11" value="" style="endArrow=none;html=1;rounded=0;entryX=0.5;entryY=1;entryDx=0;entryDy=0;strokeColor=#000000;fillColor=#FFFFFF;shadow=0;" parent="1" target="zpZ7xPXNpuBqLRHUI2Ni-14" edge="1">
          <mxGeometry width="50" height="50" relative="1" as="geometry">
            <mxPoint x="159.88" y="480" as="sourcePoint" />
            <mxPoint x="160.12" y="400" as="targetPoint" />
          </mxGeometry>
        </mxCell>
        <mxCell id="zpZ7xPXNpuBqLRHUI2Ni-18" value="" style="endArrow=none;html=1;rounded=0;exitX=0;exitY=0;exitDx=0;exitDy=0;strokeColor=#000000;fillColor=#FFFFFF;shadow=0;" parent="1" source="zpZ7xPXNpuBqLRHUI2Ni-14" edge="1">
          <mxGeometry width="50" height="50" relative="1" as="geometry">
            <mxPoint x="188" y="468" as="sourcePoint" />
            <mxPoint x="132" y="412" as="targetPoint" />
          </mxGeometry>
        </mxCell>
        <mxCell id="zpZ7xPXNpuBqLRHUI2Ni-19" value="" style="endArrow=none;html=1;rounded=0;exitX=1;exitY=0;exitDx=0;exitDy=0;strokeColor=#000000;fillColor=#FFFFFF;shadow=0;" parent="1" source="zpZ7xPXNpuBqLRHUI2Ni-14" edge="1">
          <mxGeometry width="50" height="50" relative="1" as="geometry">
            <mxPoint x="131.9999999999999" y="468" as="sourcePoint" />
            <mxPoint x="187.9999999999999" y="412" as="targetPoint" />
          </mxGeometry>
        </mxCell>
        <mxCell id="zpZ7xPXNpuBqLRHUI2Ni-14" value="" style="ellipse;whiteSpace=wrap;html=1;aspect=fixed;fillColor=#FFFFFF;strokeColor=#000000;shadow=0;" parent="1" vertex="1">
          <mxGeometry x="135" y="415" width="50" height="50" as="geometry" />
        </mxCell>
        <mxCell id="zpZ7xPXNpuBqLRHUI2Ni-75" value="" style="endArrow=none;html=1;rounded=0;entryX=1;entryY=1;entryDx=0;entryDy=0;strokeColor=#000000;fillColor=#FFFFFF;shadow=0;" parent="1" target="zpZ7xPXNpuBqLRHUI2Ni-14" edge="1">
          <mxGeometry width="50" height="50" relative="1" as="geometry">
            <mxPoint x="188" y="468" as="sourcePoint" />
            <mxPoint x="180" y="460" as="targetPoint" />
          </mxGeometry>
        </mxCell>
        <mxCell id="zpZ7xPXNpuBqLRHUI2Ni-76" value="" style="endArrow=none;html=1;rounded=0;entryX=0;entryY=1;entryDx=0;entryDy=0;strokeColor=#000000;fillColor=#FFFFFF;shadow=0;" parent="1" target="zpZ7xPXNpuBqLRHUI2Ni-14" edge="1">
          <mxGeometry width="50" height="50" relative="1" as="geometry">
            <mxPoint x="131.9999999999999" y="468" as="sourcePoint" />
            <mxPoint x="140" y="460" as="targetPoint" />
          </mxGeometry>
        </mxCell>
        <mxCell id="zpZ7xPXNpuBqLRHUI2Ni-78" value="" style="endArrow=none;html=1;rounded=0;exitX=0.5;exitY=0;exitDx=0;exitDy=0;strokeColor=#000000;fillColor=#FFFFFF;shadow=0;" parent="1" source="zpZ7xPXNpuBqLRHUI2Ni-14" edge="1">
          <mxGeometry width="50" height="50" relative="1" as="geometry">
            <mxPoint x="160" y="410" as="sourcePoint" />
            <mxPoint x="160.12" y="400" as="targetPoint" />
          </mxGeometry>
        </mxCell>
        <mxCell id="zpZ7xPXNpuBqLRHUI2Ni-80" value="" style="endArrow=none;html=1;rounded=0;entryX=1;entryY=0.5;entryDx=0;entryDy=0;strokeColor=#000000;fillColor=#FFFFFF;shadow=0;" parent="1" target="zpZ7xPXNpuBqLRHUI2Ni-14" edge="1">
          <mxGeometry width="50" height="50" relative="1" as="geometry">
            <mxPoint x="200" y="439.9" as="sourcePoint" />
            <mxPoint x="190" y="440" as="targetPoint" />
            <Array as="points">
              <mxPoint x="190" y="440" />
            </Array>
          </mxGeometry>
        </mxCell>
        <mxCell id="FyD_ZFn7u8lK-cUSMNLg-27" value="" style="ellipse;whiteSpace=wrap;html=1;aspect=fixed;strokeColor=#000000;fillColor=#FFFFFF;shadow=0;" parent="1" vertex="1">
          <mxGeometry x="120" y="520" width="80" height="80" as="geometry" />
        </mxCell>
        <mxCell id="FyD_ZFn7u8lK-cUSMNLg-28" value="" style="endArrow=none;html=1;rounded=0;exitX=0;exitY=0.5;exitDx=0;exitDy=0;strokeColor=#000000;fillColor=#FFFFFF;shadow=0;" parent="1" source="FyD_ZFn7u8lK-cUSMNLg-32" edge="1">
          <mxGeometry width="50" height="50" relative="1" as="geometry">
            <mxPoint x="200" y="559.96" as="sourcePoint" />
            <mxPoint x="120" y="560" as="targetPoint" />
          </mxGeometry>
        </mxCell>
        <mxCell id="FyD_ZFn7u8lK-cUSMNLg-29" value="" style="endArrow=none;html=1;rounded=0;entryX=0.5;entryY=1;entryDx=0;entryDy=0;strokeColor=#000000;fillColor=#FFFFFF;shadow=0;" parent="1" target="FyD_ZFn7u8lK-cUSMNLg-32" edge="1">
          <mxGeometry width="50" height="50" relative="1" as="geometry">
            <mxPoint x="159.88" y="600" as="sourcePoint" />
            <mxPoint x="160.12" y="520" as="targetPoint" />
          </mxGeometry>
        </mxCell>
        <mxCell id="FyD_ZFn7u8lK-cUSMNLg-30" value="" style="endArrow=none;html=1;rounded=0;exitX=0;exitY=0;exitDx=0;exitDy=0;strokeColor=#000000;fillColor=#FFFFFF;shadow=0;" parent="1" source="FyD_ZFn7u8lK-cUSMNLg-32" edge="1">
          <mxGeometry width="50" height="50" relative="1" as="geometry">
            <mxPoint x="188" y="588" as="sourcePoint" />
            <mxPoint x="132" y="532" as="targetPoint" />
          </mxGeometry>
        </mxCell>
        <mxCell id="FyD_ZFn7u8lK-cUSMNLg-31" value="" style="endArrow=none;html=1;rounded=0;exitX=1;exitY=0;exitDx=0;exitDy=0;strokeColor=#000000;fillColor=#FFFFFF;shadow=0;" parent="1" source="FyD_ZFn7u8lK-cUSMNLg-32" edge="1">
          <mxGeometry width="50" height="50" relative="1" as="geometry">
            <mxPoint x="131.9999999999999" y="588" as="sourcePoint" />
            <mxPoint x="187.9999999999999" y="532" as="targetPoint" />
          </mxGeometry>
        </mxCell>
        <mxCell id="FyD_ZFn7u8lK-cUSMNLg-32" value="" style="ellipse;whiteSpace=wrap;html=1;aspect=fixed;fillColor=#FFFFFF;strokeColor=#000000;shadow=0;" parent="1" vertex="1">
          <mxGeometry x="135" y="535" width="50" height="50" as="geometry" />
        </mxCell>
        <mxCell id="FyD_ZFn7u8lK-cUSMNLg-33" value="" style="endArrow=none;html=1;rounded=0;entryX=1;entryY=1;entryDx=0;entryDy=0;strokeColor=#000000;fillColor=#FFFFFF;shadow=0;" parent="1" target="FyD_ZFn7u8lK-cUSMNLg-32" edge="1">
          <mxGeometry width="50" height="50" relative="1" as="geometry">
            <mxPoint x="188" y="588" as="sourcePoint" />
            <mxPoint x="180" y="580" as="targetPoint" />
          </mxGeometry>
        </mxCell>
        <mxCell id="FyD_ZFn7u8lK-cUSMNLg-34" value="" style="endArrow=none;html=1;rounded=0;entryX=0;entryY=1;entryDx=0;entryDy=0;strokeColor=#000000;fillColor=#FFFFFF;shadow=0;" parent="1" target="FyD_ZFn7u8lK-cUSMNLg-32" edge="1">
          <mxGeometry width="50" height="50" relative="1" as="geometry">
            <mxPoint x="131.9999999999999" y="588" as="sourcePoint" />
            <mxPoint x="140" y="580" as="targetPoint" />
          </mxGeometry>
        </mxCell>
        <mxCell id="FyD_ZFn7u8lK-cUSMNLg-35" value="" style="endArrow=none;html=1;rounded=0;exitX=0.5;exitY=0;exitDx=0;exitDy=0;strokeColor=#000000;fillColor=#FFFFFF;shadow=0;" parent="1" source="FyD_ZFn7u8lK-cUSMNLg-32" edge="1">
          <mxGeometry width="50" height="50" relative="1" as="geometry">
            <mxPoint x="160" y="530" as="sourcePoint" />
            <mxPoint x="160.12" y="520" as="targetPoint" />
          </mxGeometry>
        </mxCell>
        <mxCell id="FyD_ZFn7u8lK-cUSMNLg-36" value="" style="endArrow=none;html=1;rounded=0;entryX=1;entryY=0.5;entryDx=0;entryDy=0;strokeColor=#000000;fillColor=#FFFFFF;shadow=0;" parent="1" target="FyD_ZFn7u8lK-cUSMNLg-32" edge="1">
          <mxGeometry width="50" height="50" relative="1" as="geometry">
            <mxPoint x="200" y="559.9" as="sourcePoint" />
            <mxPoint x="190" y="560" as="targetPoint" />
          </mxGeometry>
        </mxCell>
        <mxCell id="FyD_ZFn7u8lK-cUSMNLg-37" value="&lt;font color=&quot;#0ecc15&quot;&gt;6&lt;/font&gt;" style="text;strokeColor=none;align=center;fillColor=none;html=1;verticalAlign=middle;whiteSpace=wrap;rounded=0;" parent="1" vertex="1">
          <mxGeometry x="173" y="528" height="5" as="geometry" />
        </mxCell>
        <mxCell id="FyD_ZFn7u8lK-cUSMNLg-66" value="" style="endArrow=classic;html=1;rounded=0;strokeColor=#000000;exitX=0.5;exitY=0.5;exitDx=0;exitDy=0;exitPerimeter=0;entryX=0.703;entryY=0.063;entryDx=0;entryDy=0;entryPerimeter=0;" parent="1" source="FyD_ZFn7u8lK-cUSMNLg-32" target="FyD_ZFn7u8lK-cUSMNLg-32" edge="1">
          <mxGeometry width="50" height="50" relative="1" as="geometry">
            <mxPoint x="153" y="560" as="sourcePoint" />
            <mxPoint x="173" y="540" as="targetPoint" />
          </mxGeometry>
        </mxCell>
        <mxCell id="FyD_ZFn7u8lK-cUSMNLg-67" value="" style="ellipse;whiteSpace=wrap;html=1;aspect=fixed;strokeColor=#000000;fillColor=#FFFFFF;shadow=0;" parent="1" vertex="1">
          <mxGeometry x="120" y="640" width="80" height="80" as="geometry" />
        </mxCell>
        <mxCell id="FyD_ZFn7u8lK-cUSMNLg-68" value="" style="endArrow=none;html=1;rounded=0;exitX=0;exitY=0.5;exitDx=0;exitDy=0;strokeColor=#000000;fillColor=#FFFFFF;shadow=0;" parent="1" source="FyD_ZFn7u8lK-cUSMNLg-72" edge="1">
          <mxGeometry width="50" height="50" relative="1" as="geometry">
            <mxPoint x="200" y="679.96" as="sourcePoint" />
            <mxPoint x="120" y="680" as="targetPoint" />
          </mxGeometry>
        </mxCell>
        <mxCell id="FyD_ZFn7u8lK-cUSMNLg-69" value="" style="endArrow=none;html=1;rounded=0;entryX=0.5;entryY=1;entryDx=0;entryDy=0;strokeColor=#000000;fillColor=#FFFFFF;shadow=0;" parent="1" target="FyD_ZFn7u8lK-cUSMNLg-72" edge="1">
          <mxGeometry width="50" height="50" relative="1" as="geometry">
            <mxPoint x="159.88" y="720" as="sourcePoint" />
            <mxPoint x="160.12" y="640" as="targetPoint" />
          </mxGeometry>
        </mxCell>
        <mxCell id="FyD_ZFn7u8lK-cUSMNLg-70" value="" style="endArrow=none;html=1;rounded=0;exitX=0;exitY=0;exitDx=0;exitDy=0;strokeColor=#000000;fillColor=#FFFFFF;shadow=0;" parent="1" source="FyD_ZFn7u8lK-cUSMNLg-72" edge="1">
          <mxGeometry width="50" height="50" relative="1" as="geometry">
            <mxPoint x="188" y="708" as="sourcePoint" />
            <mxPoint x="132" y="652" as="targetPoint" />
          </mxGeometry>
        </mxCell>
        <mxCell id="FyD_ZFn7u8lK-cUSMNLg-71" value="" style="endArrow=none;html=1;rounded=0;exitX=1;exitY=0;exitDx=0;exitDy=0;strokeColor=#000000;fillColor=#FFFFFF;shadow=0;" parent="1" source="FyD_ZFn7u8lK-cUSMNLg-72" edge="1">
          <mxGeometry width="50" height="50" relative="1" as="geometry">
            <mxPoint x="131.9999999999999" y="708" as="sourcePoint" />
            <mxPoint x="187.9999999999999" y="652" as="targetPoint" />
          </mxGeometry>
        </mxCell>
        <mxCell id="FyD_ZFn7u8lK-cUSMNLg-72" value="" style="ellipse;whiteSpace=wrap;html=1;aspect=fixed;fillColor=#FFFFFF;strokeColor=#000000;shadow=0;" parent="1" vertex="1">
          <mxGeometry x="135" y="655" width="50" height="50" as="geometry" />
        </mxCell>
        <mxCell id="FyD_ZFn7u8lK-cUSMNLg-73" value="" style="endArrow=none;html=1;rounded=0;entryX=1;entryY=1;entryDx=0;entryDy=0;strokeColor=#000000;fillColor=#FFFFFF;shadow=0;" parent="1" target="FyD_ZFn7u8lK-cUSMNLg-72" edge="1">
          <mxGeometry width="50" height="50" relative="1" as="geometry">
            <mxPoint x="188" y="708" as="sourcePoint" />
            <mxPoint x="180" y="700" as="targetPoint" />
          </mxGeometry>
        </mxCell>
        <mxCell id="FyD_ZFn7u8lK-cUSMNLg-74" value="" style="endArrow=none;html=1;rounded=0;entryX=0;entryY=1;entryDx=0;entryDy=0;strokeColor=#000000;fillColor=#FFFFFF;shadow=0;" parent="1" target="FyD_ZFn7u8lK-cUSMNLg-72" edge="1">
          <mxGeometry width="50" height="50" relative="1" as="geometry">
            <mxPoint x="131.9999999999999" y="708" as="sourcePoint" />
            <mxPoint x="140" y="700" as="targetPoint" />
          </mxGeometry>
        </mxCell>
        <mxCell id="FyD_ZFn7u8lK-cUSMNLg-75" value="" style="endArrow=none;html=1;rounded=0;exitX=0.5;exitY=0;exitDx=0;exitDy=0;strokeColor=#000000;fillColor=#FFFFFF;shadow=0;" parent="1" source="FyD_ZFn7u8lK-cUSMNLg-72" edge="1">
          <mxGeometry width="50" height="50" relative="1" as="geometry">
            <mxPoint x="160" y="650" as="sourcePoint" />
            <mxPoint x="160.12" y="640" as="targetPoint" />
          </mxGeometry>
        </mxCell>
        <mxCell id="FyD_ZFn7u8lK-cUSMNLg-76" value="" style="endArrow=none;html=1;rounded=0;entryX=1;entryY=0.5;entryDx=0;entryDy=0;strokeColor=#000000;fillColor=#FFFFFF;shadow=0;" parent="1" target="FyD_ZFn7u8lK-cUSMNLg-72" edge="1">
          <mxGeometry width="50" height="50" relative="1" as="geometry">
            <mxPoint x="200" y="679.9" as="sourcePoint" />
            <mxPoint x="190" y="680" as="targetPoint" />
          </mxGeometry>
        </mxCell>
        <mxCell id="FyD_ZFn7u8lK-cUSMNLg-77" value="&lt;font&gt;6&lt;/font&gt;" style="text;strokeColor=none;align=center;fillColor=none;html=1;verticalAlign=middle;whiteSpace=wrap;rounded=0;fontColor=#000000;" parent="1" vertex="1">
          <mxGeometry x="173" y="648" height="5" as="geometry" />
        </mxCell>
        <mxCell id="FyD_ZFn7u8lK-cUSMNLg-78" value="" style="endArrow=classic;html=1;rounded=0;strokeColor=#000000;exitX=0.5;exitY=0.5;exitDx=0;exitDy=0;exitPerimeter=0;entryX=0.703;entryY=0.063;entryDx=0;entryDy=0;entryPerimeter=0;" parent="1" source="FyD_ZFn7u8lK-cUSMNLg-72" target="FyD_ZFn7u8lK-cUSMNLg-72" edge="1">
          <mxGeometry width="50" height="50" relative="1" as="geometry">
            <mxPoint x="153" y="680" as="sourcePoint" />
            <mxPoint x="173" y="660" as="targetPoint" />
          </mxGeometry>
        </mxCell>
        <mxCell id="FyD_ZFn7u8lK-cUSMNLg-79" value="&lt;font color=&quot;#0ecc15&quot;&gt;7&lt;/font&gt;" style="text;strokeColor=none;align=center;fillColor=none;html=1;verticalAlign=middle;whiteSpace=wrap;rounded=0;" parent="1" vertex="1">
          <mxGeometry x="190" y="666" height="5" as="geometry" />
        </mxCell>
        <mxCell id="FyD_ZFn7u8lK-cUSMNLg-80" value="&lt;font color=&quot;#0ecc15&quot;&gt;8&lt;/font&gt;" style="text;strokeColor=none;align=center;fillColor=none;html=1;verticalAlign=middle;whiteSpace=wrap;rounded=0;" parent="1" vertex="1">
          <mxGeometry x="190" y="690" height="5" as="geometry" />
        </mxCell>
        <mxCell id="FyD_ZFn7u8lK-cUSMNLg-81" value="" style="endArrow=classic;html=1;rounded=0;strokeColor=#000000;exitX=0.5;exitY=0.5;exitDx=0;exitDy=0;exitPerimeter=0;entryX=0.948;entryY=0.68;entryDx=0;entryDy=0;entryPerimeter=0;" parent="1" target="FyD_ZFn7u8lK-cUSMNLg-72" edge="1">
          <mxGeometry width="50" height="50" relative="1" as="geometry">
            <mxPoint x="160" y="680" as="sourcePoint" />
            <mxPoint x="180" y="682.5" as="targetPoint" />
          </mxGeometry>
        </mxCell>
        <mxCell id="FyD_ZFn7u8lK-cUSMNLg-82" value="" style="ellipse;whiteSpace=wrap;html=1;aspect=fixed;strokeColor=#000000;fillColor=#FFFFFF;shadow=0;" parent="1" vertex="1">
          <mxGeometry x="120" y="760" width="80" height="80" as="geometry" />
        </mxCell>
        <mxCell id="FyD_ZFn7u8lK-cUSMNLg-83" value="" style="endArrow=none;html=1;rounded=0;exitX=0;exitY=0.5;exitDx=0;exitDy=0;strokeColor=#000000;fillColor=#FFFFFF;shadow=0;" parent="1" source="FyD_ZFn7u8lK-cUSMNLg-87" edge="1">
          <mxGeometry width="50" height="50" relative="1" as="geometry">
            <mxPoint x="200" y="799.96" as="sourcePoint" />
            <mxPoint x="120" y="800" as="targetPoint" />
          </mxGeometry>
        </mxCell>
        <mxCell id="FyD_ZFn7u8lK-cUSMNLg-84" value="" style="endArrow=none;html=1;rounded=0;entryX=0.5;entryY=1;entryDx=0;entryDy=0;strokeColor=#000000;fillColor=#FFFFFF;shadow=0;" parent="1" target="FyD_ZFn7u8lK-cUSMNLg-87" edge="1">
          <mxGeometry width="50" height="50" relative="1" as="geometry">
            <mxPoint x="159.88" y="840" as="sourcePoint" />
            <mxPoint x="160.12" y="760" as="targetPoint" />
          </mxGeometry>
        </mxCell>
        <mxCell id="FyD_ZFn7u8lK-cUSMNLg-85" value="" style="endArrow=none;html=1;rounded=0;exitX=0;exitY=0;exitDx=0;exitDy=0;strokeColor=#000000;fillColor=#FFFFFF;shadow=0;" parent="1" source="FyD_ZFn7u8lK-cUSMNLg-87" edge="1">
          <mxGeometry width="50" height="50" relative="1" as="geometry">
            <mxPoint x="188" y="828" as="sourcePoint" />
            <mxPoint x="132" y="772" as="targetPoint" />
          </mxGeometry>
        </mxCell>
        <mxCell id="FyD_ZFn7u8lK-cUSMNLg-86" value="" style="endArrow=none;html=1;rounded=0;exitX=1;exitY=0;exitDx=0;exitDy=0;strokeColor=#000000;fillColor=#FFFFFF;shadow=0;" parent="1" source="FyD_ZFn7u8lK-cUSMNLg-87" edge="1">
          <mxGeometry width="50" height="50" relative="1" as="geometry">
            <mxPoint x="131.9999999999999" y="828" as="sourcePoint" />
            <mxPoint x="187.9999999999999" y="772" as="targetPoint" />
          </mxGeometry>
        </mxCell>
        <mxCell id="FyD_ZFn7u8lK-cUSMNLg-87" value="" style="ellipse;whiteSpace=wrap;html=1;aspect=fixed;fillColor=#FFFFFF;strokeColor=#000000;shadow=0;" parent="1" vertex="1">
          <mxGeometry x="135" y="775" width="50" height="50" as="geometry" />
        </mxCell>
        <mxCell id="FyD_ZFn7u8lK-cUSMNLg-88" value="" style="endArrow=none;html=1;rounded=0;entryX=1;entryY=1;entryDx=0;entryDy=0;strokeColor=#000000;fillColor=#FFFFFF;shadow=0;" parent="1" target="FyD_ZFn7u8lK-cUSMNLg-87" edge="1">
          <mxGeometry width="50" height="50" relative="1" as="geometry">
            <mxPoint x="188" y="828" as="sourcePoint" />
            <mxPoint x="180" y="820" as="targetPoint" />
          </mxGeometry>
        </mxCell>
        <mxCell id="FyD_ZFn7u8lK-cUSMNLg-89" value="" style="endArrow=none;html=1;rounded=0;entryX=0;entryY=1;entryDx=0;entryDy=0;strokeColor=#000000;fillColor=#FFFFFF;shadow=0;" parent="1" target="FyD_ZFn7u8lK-cUSMNLg-87" edge="1">
          <mxGeometry width="50" height="50" relative="1" as="geometry">
            <mxPoint x="131.9999999999999" y="828" as="sourcePoint" />
            <mxPoint x="140" y="820" as="targetPoint" />
          </mxGeometry>
        </mxCell>
        <mxCell id="FyD_ZFn7u8lK-cUSMNLg-90" value="" style="endArrow=none;html=1;rounded=0;exitX=0.5;exitY=0;exitDx=0;exitDy=0;strokeColor=#000000;fillColor=#FFFFFF;shadow=0;" parent="1" source="FyD_ZFn7u8lK-cUSMNLg-87" edge="1">
          <mxGeometry width="50" height="50" relative="1" as="geometry">
            <mxPoint x="160" y="770" as="sourcePoint" />
            <mxPoint x="160.12" y="760" as="targetPoint" />
          </mxGeometry>
        </mxCell>
        <mxCell id="FyD_ZFn7u8lK-cUSMNLg-91" value="" style="endArrow=none;html=1;rounded=0;entryX=1;entryY=0.5;entryDx=0;entryDy=0;strokeColor=#000000;fillColor=#FFFFFF;shadow=0;" parent="1" target="FyD_ZFn7u8lK-cUSMNLg-87" edge="1">
          <mxGeometry width="50" height="50" relative="1" as="geometry">
            <mxPoint x="200" y="799.9" as="sourcePoint" />
            <mxPoint x="190" y="800" as="targetPoint" />
          </mxGeometry>
        </mxCell>
        <mxCell id="FyD_ZFn7u8lK-cUSMNLg-92" value="&lt;font&gt;6&lt;/font&gt;" style="text;strokeColor=none;align=center;fillColor=none;html=1;verticalAlign=middle;whiteSpace=wrap;rounded=0;fontColor=#000000;" parent="1" vertex="1">
          <mxGeometry x="173" y="768" height="5" as="geometry" />
        </mxCell>
        <mxCell id="FyD_ZFn7u8lK-cUSMNLg-93" value="" style="endArrow=classic;html=1;rounded=0;strokeColor=#000000;exitX=0.5;exitY=0.5;exitDx=0;exitDy=0;exitPerimeter=0;entryX=0.053;entryY=0.697;entryDx=0;entryDy=0;entryPerimeter=0;" parent="1" source="FyD_ZFn7u8lK-cUSMNLg-87" target="FyD_ZFn7u8lK-cUSMNLg-87" edge="1">
          <mxGeometry width="50" height="50" relative="1" as="geometry">
            <mxPoint x="153" y="800" as="sourcePoint" />
            <mxPoint x="173" y="780" as="targetPoint" />
          </mxGeometry>
        </mxCell>
        <mxCell id="FyD_ZFn7u8lK-cUSMNLg-94" value="&lt;font&gt;7&lt;/font&gt;" style="text;strokeColor=none;align=center;fillColor=none;html=1;verticalAlign=middle;whiteSpace=wrap;rounded=0;fontColor=#000000;" parent="1" vertex="1">
          <mxGeometry x="190" y="786" height="5" as="geometry" />
        </mxCell>
        <mxCell id="FyD_ZFn7u8lK-cUSMNLg-95" value="&lt;font&gt;8&lt;/font&gt;" style="text;strokeColor=none;align=center;fillColor=none;html=1;verticalAlign=middle;whiteSpace=wrap;rounded=0;fontColor=#000000;" parent="1" vertex="1">
          <mxGeometry x="190" y="810" height="5" as="geometry" />
        </mxCell>
        <mxCell id="FyD_ZFn7u8lK-cUSMNLg-96" value="" style="endArrow=classic;html=1;rounded=0;strokeColor=#000000;exitX=0.5;exitY=0.5;exitDx=0;exitDy=0;exitPerimeter=0;entryX=0.948;entryY=0.68;entryDx=0;entryDy=0;entryPerimeter=0;" parent="1" target="FyD_ZFn7u8lK-cUSMNLg-87" edge="1">
          <mxGeometry width="50" height="50" relative="1" as="geometry">
            <mxPoint x="160" y="800" as="sourcePoint" />
            <mxPoint x="180" y="802.5" as="targetPoint" />
          </mxGeometry>
        </mxCell>
        <mxCell id="FyD_ZFn7u8lK-cUSMNLg-97" value="&lt;font color=&quot;#0ecc15&quot;&gt;5&lt;/font&gt;" style="text;strokeColor=none;align=center;fillColor=none;html=1;verticalAlign=middle;whiteSpace=wrap;rounded=0;" parent="1" vertex="1">
          <mxGeometry x="148" y="768" height="5" as="geometry" />
        </mxCell>
        <mxCell id="FyD_ZFn7u8lK-cUSMNLg-98" value="&lt;font color=&quot;#0ecc15&quot;&gt;4&lt;/font&gt;" style="text;strokeColor=none;align=center;fillColor=none;html=1;verticalAlign=middle;whiteSpace=wrap;rounded=0;" parent="1" vertex="1">
          <mxGeometry x="131" y="787" height="5" as="geometry" />
        </mxCell>
        <mxCell id="FyD_ZFn7u8lK-cUSMNLg-99" value="&lt;font color=&quot;#0ecc15&quot;&gt;3&lt;/font&gt;" style="text;strokeColor=none;align=center;fillColor=none;html=1;verticalAlign=middle;whiteSpace=wrap;rounded=0;" parent="1" vertex="1">
          <mxGeometry x="131" y="811" height="5" as="geometry" />
        </mxCell>
        <mxCell id="FyD_ZFn7u8lK-cUSMNLg-100" value="" style="ellipse;whiteSpace=wrap;html=1;aspect=fixed;strokeColor=#000000;fillColor=#FFFFFF;shadow=0;" parent="1" vertex="1">
          <mxGeometry x="120" y="880" width="80" height="80" as="geometry" />
        </mxCell>
        <mxCell id="FyD_ZFn7u8lK-cUSMNLg-101" value="" style="endArrow=none;html=1;rounded=0;exitX=0;exitY=0.5;exitDx=0;exitDy=0;strokeColor=#000000;fillColor=#FFFFFF;shadow=0;" parent="1" source="FyD_ZFn7u8lK-cUSMNLg-105" edge="1">
          <mxGeometry width="50" height="50" relative="1" as="geometry">
            <mxPoint x="200" y="919.96" as="sourcePoint" />
            <mxPoint x="120" y="920" as="targetPoint" />
          </mxGeometry>
        </mxCell>
        <mxCell id="FyD_ZFn7u8lK-cUSMNLg-102" value="" style="endArrow=none;html=1;rounded=0;entryX=0.5;entryY=1;entryDx=0;entryDy=0;strokeColor=#000000;fillColor=#FFFFFF;shadow=0;" parent="1" target="FyD_ZFn7u8lK-cUSMNLg-105" edge="1">
          <mxGeometry width="50" height="50" relative="1" as="geometry">
            <mxPoint x="159.88" y="960" as="sourcePoint" />
            <mxPoint x="160.12" y="880" as="targetPoint" />
          </mxGeometry>
        </mxCell>
        <mxCell id="FyD_ZFn7u8lK-cUSMNLg-103" value="" style="endArrow=none;html=1;rounded=0;exitX=0;exitY=0;exitDx=0;exitDy=0;strokeColor=#000000;fillColor=#FFFFFF;shadow=0;" parent="1" source="FyD_ZFn7u8lK-cUSMNLg-105" edge="1">
          <mxGeometry width="50" height="50" relative="1" as="geometry">
            <mxPoint x="188" y="948" as="sourcePoint" />
            <mxPoint x="132" y="892" as="targetPoint" />
          </mxGeometry>
        </mxCell>
        <mxCell id="FyD_ZFn7u8lK-cUSMNLg-104" value="" style="endArrow=none;html=1;rounded=0;exitX=1;exitY=0;exitDx=0;exitDy=0;strokeColor=#000000;fillColor=#FFFFFF;shadow=0;" parent="1" source="FyD_ZFn7u8lK-cUSMNLg-105" edge="1">
          <mxGeometry width="50" height="50" relative="1" as="geometry">
            <mxPoint x="131.9999999999999" y="948" as="sourcePoint" />
            <mxPoint x="187.9999999999999" y="892" as="targetPoint" />
          </mxGeometry>
        </mxCell>
        <mxCell id="FyD_ZFn7u8lK-cUSMNLg-105" value="" style="ellipse;whiteSpace=wrap;html=1;aspect=fixed;fillColor=#FFFFFF;strokeColor=#000000;shadow=0;" parent="1" vertex="1">
          <mxGeometry x="135" y="895" width="50" height="50" as="geometry" />
        </mxCell>
        <mxCell id="FyD_ZFn7u8lK-cUSMNLg-106" value="" style="endArrow=none;html=1;rounded=0;entryX=1;entryY=1;entryDx=0;entryDy=0;strokeColor=#000000;fillColor=#FFFFFF;shadow=0;" parent="1" target="FyD_ZFn7u8lK-cUSMNLg-105" edge="1">
          <mxGeometry width="50" height="50" relative="1" as="geometry">
            <mxPoint x="188" y="948" as="sourcePoint" />
            <mxPoint x="180" y="940" as="targetPoint" />
          </mxGeometry>
        </mxCell>
        <mxCell id="FyD_ZFn7u8lK-cUSMNLg-107" value="" style="endArrow=none;html=1;rounded=0;entryX=0;entryY=1;entryDx=0;entryDy=0;strokeColor=#000000;fillColor=#FFFFFF;shadow=0;" parent="1" target="FyD_ZFn7u8lK-cUSMNLg-105" edge="1">
          <mxGeometry width="50" height="50" relative="1" as="geometry">
            <mxPoint x="131.9999999999999" y="948" as="sourcePoint" />
            <mxPoint x="140" y="940" as="targetPoint" />
          </mxGeometry>
        </mxCell>
        <mxCell id="FyD_ZFn7u8lK-cUSMNLg-108" value="" style="endArrow=none;html=1;rounded=0;exitX=0.5;exitY=0;exitDx=0;exitDy=0;strokeColor=#000000;fillColor=#FFFFFF;shadow=0;" parent="1" source="FyD_ZFn7u8lK-cUSMNLg-105" edge="1">
          <mxGeometry width="50" height="50" relative="1" as="geometry">
            <mxPoint x="160" y="890" as="sourcePoint" />
            <mxPoint x="160.12" y="880" as="targetPoint" />
          </mxGeometry>
        </mxCell>
        <mxCell id="FyD_ZFn7u8lK-cUSMNLg-109" value="" style="endArrow=none;html=1;rounded=0;entryX=1;entryY=0.5;entryDx=0;entryDy=0;strokeColor=#000000;fillColor=#FFFFFF;shadow=0;" parent="1" target="FyD_ZFn7u8lK-cUSMNLg-105" edge="1">
          <mxGeometry width="50" height="50" relative="1" as="geometry">
            <mxPoint x="200" y="919.9" as="sourcePoint" />
            <mxPoint x="190" y="920" as="targetPoint" />
          </mxGeometry>
        </mxCell>
        <mxCell id="FyD_ZFn7u8lK-cUSMNLg-110" value="&lt;font&gt;6&lt;/font&gt;" style="text;strokeColor=none;align=center;fillColor=none;html=1;verticalAlign=middle;whiteSpace=wrap;rounded=0;fontColor=#000000;" parent="1" vertex="1">
          <mxGeometry x="173" y="888" height="5" as="geometry" />
        </mxCell>
        <mxCell id="FyD_ZFn7u8lK-cUSMNLg-111" value="" style="endArrow=classic;html=1;rounded=0;strokeColor=#000000;exitX=0.5;exitY=0.5;exitDx=0;exitDy=0;exitPerimeter=0;entryX=0.037;entryY=0.341;entryDx=0;entryDy=0;entryPerimeter=0;" parent="1" source="FyD_ZFn7u8lK-cUSMNLg-105" target="FyD_ZFn7u8lK-cUSMNLg-105" edge="1">
          <mxGeometry width="50" height="50" relative="1" as="geometry">
            <mxPoint x="153" y="920" as="sourcePoint" />
            <mxPoint x="173" y="900" as="targetPoint" />
          </mxGeometry>
        </mxCell>
        <mxCell id="FyD_ZFn7u8lK-cUSMNLg-112" value="&lt;font&gt;7&lt;/font&gt;" style="text;strokeColor=none;align=center;fillColor=none;html=1;verticalAlign=middle;whiteSpace=wrap;rounded=0;fontColor=#000000;" parent="1" vertex="1">
          <mxGeometry x="190" y="906" height="5" as="geometry" />
        </mxCell>
        <mxCell id="FyD_ZFn7u8lK-cUSMNLg-113" value="&lt;font&gt;8&lt;/font&gt;" style="text;strokeColor=none;align=center;fillColor=none;html=1;verticalAlign=middle;whiteSpace=wrap;rounded=0;fontColor=#000000;" parent="1" vertex="1">
          <mxGeometry x="190" y="930" height="5" as="geometry" />
        </mxCell>
        <mxCell id="FyD_ZFn7u8lK-cUSMNLg-114" value="" style="endArrow=classic;html=1;rounded=0;strokeColor=#000000;exitX=0.5;exitY=0.5;exitDx=0;exitDy=0;exitPerimeter=0;entryX=0.948;entryY=0.68;entryDx=0;entryDy=0;entryPerimeter=0;" parent="1" target="FyD_ZFn7u8lK-cUSMNLg-105" edge="1">
          <mxGeometry width="50" height="50" relative="1" as="geometry">
            <mxPoint x="160" y="920" as="sourcePoint" />
            <mxPoint x="180" y="922.5" as="targetPoint" />
          </mxGeometry>
        </mxCell>
        <mxCell id="FyD_ZFn7u8lK-cUSMNLg-115" value="&lt;font&gt;5&lt;/font&gt;" style="text;strokeColor=none;align=center;fillColor=none;html=1;verticalAlign=middle;whiteSpace=wrap;rounded=0;fontColor=#000000;" parent="1" vertex="1">
          <mxGeometry x="148" y="888" height="5" as="geometry" />
        </mxCell>
        <mxCell id="FyD_ZFn7u8lK-cUSMNLg-116" value="&lt;font&gt;4&lt;/font&gt;" style="text;strokeColor=none;align=center;fillColor=none;html=1;verticalAlign=middle;whiteSpace=wrap;rounded=0;fontColor=#000000;" parent="1" vertex="1">
          <mxGeometry x="131" y="907" height="5" as="geometry" />
        </mxCell>
        <mxCell id="FyD_ZFn7u8lK-cUSMNLg-117" value="3" style="text;strokeColor=none;align=center;fillColor=none;verticalAlign=middle;whiteSpace=wrap;rounded=0;fontColor=#FF4747;fontStyle=0;html=1;" parent="1" vertex="1">
          <mxGeometry x="131" y="931" height="5" as="geometry" />
        </mxCell>
        <mxCell id="FyD_ZFn7u8lK-cUSMNLg-118" value="" style="ellipse;whiteSpace=wrap;html=1;aspect=fixed;strokeColor=#000000;fillColor=#FFFFFF;shadow=0;" parent="1" vertex="1">
          <mxGeometry x="120" y="1000" width="80" height="80" as="geometry" />
        </mxCell>
        <mxCell id="FyD_ZFn7u8lK-cUSMNLg-119" value="" style="endArrow=none;html=1;rounded=0;exitX=0;exitY=0.5;exitDx=0;exitDy=0;strokeColor=#000000;fillColor=#FFFFFF;shadow=0;" parent="1" source="FyD_ZFn7u8lK-cUSMNLg-123" edge="1">
          <mxGeometry width="50" height="50" relative="1" as="geometry">
            <mxPoint x="200" y="1039.96" as="sourcePoint" />
            <mxPoint x="120" y="1040" as="targetPoint" />
          </mxGeometry>
        </mxCell>
        <mxCell id="FyD_ZFn7u8lK-cUSMNLg-120" value="" style="endArrow=none;html=1;rounded=0;entryX=0.5;entryY=1;entryDx=0;entryDy=0;strokeColor=#000000;fillColor=#FFFFFF;shadow=0;" parent="1" target="FyD_ZFn7u8lK-cUSMNLg-123" edge="1">
          <mxGeometry width="50" height="50" relative="1" as="geometry">
            <mxPoint x="159.88" y="1080" as="sourcePoint" />
            <mxPoint x="160.12" y="1000" as="targetPoint" />
          </mxGeometry>
        </mxCell>
        <mxCell id="FyD_ZFn7u8lK-cUSMNLg-121" value="" style="endArrow=none;html=1;rounded=0;exitX=0;exitY=0;exitDx=0;exitDy=0;strokeColor=#000000;fillColor=#FFFFFF;shadow=0;" parent="1" source="FyD_ZFn7u8lK-cUSMNLg-123" edge="1">
          <mxGeometry width="50" height="50" relative="1" as="geometry">
            <mxPoint x="188" y="1068" as="sourcePoint" />
            <mxPoint x="132" y="1012" as="targetPoint" />
          </mxGeometry>
        </mxCell>
        <mxCell id="FyD_ZFn7u8lK-cUSMNLg-122" value="" style="endArrow=none;html=1;rounded=0;exitX=1;exitY=0;exitDx=0;exitDy=0;strokeColor=#000000;fillColor=#FFFFFF;shadow=0;" parent="1" source="FyD_ZFn7u8lK-cUSMNLg-123" edge="1">
          <mxGeometry width="50" height="50" relative="1" as="geometry">
            <mxPoint x="131.9999999999999" y="1068" as="sourcePoint" />
            <mxPoint x="187.9999999999999" y="1012" as="targetPoint" />
          </mxGeometry>
        </mxCell>
        <mxCell id="FyD_ZFn7u8lK-cUSMNLg-123" value="" style="ellipse;whiteSpace=wrap;html=1;aspect=fixed;fillColor=#FFFFFF;strokeColor=#000000;shadow=0;" parent="1" vertex="1">
          <mxGeometry x="135" y="1015" width="50" height="50" as="geometry" />
        </mxCell>
        <mxCell id="FyD_ZFn7u8lK-cUSMNLg-124" value="" style="endArrow=none;html=1;rounded=0;entryX=1;entryY=1;entryDx=0;entryDy=0;strokeColor=#000000;fillColor=#FFFFFF;shadow=0;" parent="1" target="FyD_ZFn7u8lK-cUSMNLg-123" edge="1">
          <mxGeometry width="50" height="50" relative="1" as="geometry">
            <mxPoint x="188" y="1068" as="sourcePoint" />
            <mxPoint x="180" y="1060" as="targetPoint" />
          </mxGeometry>
        </mxCell>
        <mxCell id="FyD_ZFn7u8lK-cUSMNLg-125" value="" style="endArrow=none;html=1;rounded=0;entryX=0;entryY=1;entryDx=0;entryDy=0;strokeColor=#000000;fillColor=#FFFFFF;shadow=0;" parent="1" target="FyD_ZFn7u8lK-cUSMNLg-123" edge="1">
          <mxGeometry width="50" height="50" relative="1" as="geometry">
            <mxPoint x="131.9999999999999" y="1068" as="sourcePoint" />
            <mxPoint x="140" y="1060" as="targetPoint" />
          </mxGeometry>
        </mxCell>
        <mxCell id="FyD_ZFn7u8lK-cUSMNLg-126" value="" style="endArrow=none;html=1;rounded=0;exitX=0.5;exitY=0;exitDx=0;exitDy=0;strokeColor=#000000;fillColor=#FFFFFF;shadow=0;" parent="1" source="FyD_ZFn7u8lK-cUSMNLg-123" edge="1">
          <mxGeometry width="50" height="50" relative="1" as="geometry">
            <mxPoint x="160" y="1010" as="sourcePoint" />
            <mxPoint x="160.12" y="1000" as="targetPoint" />
          </mxGeometry>
        </mxCell>
        <mxCell id="FyD_ZFn7u8lK-cUSMNLg-127" value="" style="endArrow=none;html=1;rounded=0;entryX=1;entryY=0.5;entryDx=0;entryDy=0;strokeColor=#000000;fillColor=#FFFFFF;shadow=0;" parent="1" target="FyD_ZFn7u8lK-cUSMNLg-123" edge="1">
          <mxGeometry width="50" height="50" relative="1" as="geometry">
            <mxPoint x="200" y="1039.9" as="sourcePoint" />
            <mxPoint x="190" y="1040" as="targetPoint" />
          </mxGeometry>
        </mxCell>
        <mxCell id="FyD_ZFn7u8lK-cUSMNLg-128" value="&lt;font&gt;6&lt;/font&gt;" style="text;strokeColor=none;align=center;fillColor=none;html=1;verticalAlign=middle;whiteSpace=wrap;rounded=0;fontColor=#000000;" parent="1" vertex="1">
          <mxGeometry x="173" y="1008" height="5" as="geometry" />
        </mxCell>
        <mxCell id="FyD_ZFn7u8lK-cUSMNLg-129" value="" style="endArrow=classic;html=1;rounded=0;strokeColor=#000000;exitX=0.5;exitY=0.5;exitDx=0;exitDy=0;exitPerimeter=0;entryX=0.037;entryY=0.341;entryDx=0;entryDy=0;entryPerimeter=0;" parent="1" source="FyD_ZFn7u8lK-cUSMNLg-123" target="FyD_ZFn7u8lK-cUSMNLg-123" edge="1">
          <mxGeometry width="50" height="50" relative="1" as="geometry">
            <mxPoint x="153" y="1040" as="sourcePoint" />
            <mxPoint x="173" y="1020" as="targetPoint" />
          </mxGeometry>
        </mxCell>
        <mxCell id="FyD_ZFn7u8lK-cUSMNLg-130" value="&lt;font&gt;7&lt;/font&gt;" style="text;strokeColor=none;align=center;fillColor=none;html=1;verticalAlign=middle;whiteSpace=wrap;rounded=0;fontColor=#000000;" parent="1" vertex="1">
          <mxGeometry x="190" y="1026" height="5" as="geometry" />
        </mxCell>
        <mxCell id="FyD_ZFn7u8lK-cUSMNLg-131" value="&lt;font&gt;8&lt;/font&gt;" style="text;strokeColor=none;align=center;fillColor=none;html=1;verticalAlign=middle;whiteSpace=wrap;rounded=0;fontColor=#FF4747;" parent="1" vertex="1">
          <mxGeometry x="190" y="1050" height="5" as="geometry" />
        </mxCell>
        <mxCell id="FyD_ZFn7u8lK-cUSMNLg-132" value="" style="endArrow=classic;html=1;rounded=0;strokeColor=#000000;exitX=0.5;exitY=0.5;exitDx=0;exitDy=0;exitPerimeter=0;entryX=0.942;entryY=0.33;entryDx=0;entryDy=0;entryPerimeter=0;" parent="1" target="FyD_ZFn7u8lK-cUSMNLg-123" edge="1">
          <mxGeometry width="50" height="50" relative="1" as="geometry">
            <mxPoint x="160" y="1040" as="sourcePoint" />
            <mxPoint x="180" y="1042.5" as="targetPoint" />
          </mxGeometry>
        </mxCell>
        <mxCell id="FyD_ZFn7u8lK-cUSMNLg-133" value="&lt;font&gt;5&lt;/font&gt;" style="text;strokeColor=none;align=center;fillColor=none;html=1;verticalAlign=middle;whiteSpace=wrap;rounded=0;fontColor=#000000;" parent="1" vertex="1">
          <mxGeometry x="148" y="1008" height="5" as="geometry" />
        </mxCell>
        <mxCell id="FyD_ZFn7u8lK-cUSMNLg-134" value="&lt;font&gt;4&lt;/font&gt;" style="text;strokeColor=none;align=center;fillColor=none;html=1;verticalAlign=middle;whiteSpace=wrap;rounded=0;fontColor=#000000;" parent="1" vertex="1">
          <mxGeometry x="131" y="1027" height="5" as="geometry" />
        </mxCell>
        <mxCell id="FyD_ZFn7u8lK-cUSMNLg-153" value="" style="ellipse;whiteSpace=wrap;html=1;aspect=fixed;strokeColor=#000000;fillColor=#FFFFFF;shadow=0;" parent="1" vertex="1">
          <mxGeometry x="280" y="400" width="80" height="80" as="geometry" />
        </mxCell>
        <mxCell id="FyD_ZFn7u8lK-cUSMNLg-154" value="" style="endArrow=none;html=1;rounded=0;exitX=0;exitY=0.5;exitDx=0;exitDy=0;strokeColor=#000000;fillColor=#FFFFFF;shadow=0;" parent="1" source="FyD_ZFn7u8lK-cUSMNLg-158" edge="1">
          <mxGeometry width="50" height="50" relative="1" as="geometry">
            <mxPoint x="360" y="439.96000000000004" as="sourcePoint" />
            <mxPoint x="280" y="440" as="targetPoint" />
          </mxGeometry>
        </mxCell>
        <mxCell id="FyD_ZFn7u8lK-cUSMNLg-155" value="" style="endArrow=none;html=1;rounded=0;entryX=0.5;entryY=1;entryDx=0;entryDy=0;strokeColor=#000000;fillColor=#FFFFFF;shadow=0;" parent="1" target="FyD_ZFn7u8lK-cUSMNLg-158" edge="1">
          <mxGeometry width="50" height="50" relative="1" as="geometry">
            <mxPoint x="319.88" y="480" as="sourcePoint" />
            <mxPoint x="320.12" y="400" as="targetPoint" />
          </mxGeometry>
        </mxCell>
        <mxCell id="FyD_ZFn7u8lK-cUSMNLg-156" value="" style="endArrow=none;html=1;rounded=0;exitX=0;exitY=0;exitDx=0;exitDy=0;strokeColor=#000000;fillColor=#FFFFFF;shadow=0;" parent="1" source="FyD_ZFn7u8lK-cUSMNLg-158" edge="1">
          <mxGeometry width="50" height="50" relative="1" as="geometry">
            <mxPoint x="348" y="468" as="sourcePoint" />
            <mxPoint x="292" y="412" as="targetPoint" />
          </mxGeometry>
        </mxCell>
        <mxCell id="FyD_ZFn7u8lK-cUSMNLg-157" value="" style="endArrow=none;html=1;rounded=0;exitX=1;exitY=0;exitDx=0;exitDy=0;strokeColor=#000000;fillColor=#FFFFFF;shadow=0;" parent="1" source="FyD_ZFn7u8lK-cUSMNLg-158" edge="1">
          <mxGeometry width="50" height="50" relative="1" as="geometry">
            <mxPoint x="291.9999999999999" y="468" as="sourcePoint" />
            <mxPoint x="347.9999999999999" y="412" as="targetPoint" />
          </mxGeometry>
        </mxCell>
        <mxCell id="FyD_ZFn7u8lK-cUSMNLg-158" value="" style="ellipse;whiteSpace=wrap;html=1;aspect=fixed;fillColor=#FFFFFF;strokeColor=#000000;shadow=0;" parent="1" vertex="1">
          <mxGeometry x="295" y="415" width="50" height="50" as="geometry" />
        </mxCell>
        <mxCell id="FyD_ZFn7u8lK-cUSMNLg-159" value="" style="endArrow=none;html=1;rounded=0;entryX=1;entryY=1;entryDx=0;entryDy=0;strokeColor=#000000;fillColor=#FFFFFF;shadow=0;" parent="1" target="FyD_ZFn7u8lK-cUSMNLg-158" edge="1">
          <mxGeometry width="50" height="50" relative="1" as="geometry">
            <mxPoint x="348" y="468" as="sourcePoint" />
            <mxPoint x="340" y="460" as="targetPoint" />
          </mxGeometry>
        </mxCell>
        <mxCell id="FyD_ZFn7u8lK-cUSMNLg-160" value="" style="endArrow=none;html=1;rounded=0;entryX=0;entryY=1;entryDx=0;entryDy=0;strokeColor=#000000;fillColor=#FFFFFF;shadow=0;" parent="1" target="FyD_ZFn7u8lK-cUSMNLg-158" edge="1">
          <mxGeometry width="50" height="50" relative="1" as="geometry">
            <mxPoint x="291.9999999999999" y="468" as="sourcePoint" />
            <mxPoint x="300" y="460" as="targetPoint" />
          </mxGeometry>
        </mxCell>
        <mxCell id="FyD_ZFn7u8lK-cUSMNLg-161" value="" style="endArrow=none;html=1;rounded=0;exitX=0.5;exitY=0;exitDx=0;exitDy=0;strokeColor=#000000;fillColor=#FFFFFF;shadow=0;" parent="1" source="FyD_ZFn7u8lK-cUSMNLg-158" edge="1">
          <mxGeometry width="50" height="50" relative="1" as="geometry">
            <mxPoint x="320" y="410" as="sourcePoint" />
            <mxPoint x="320.12" y="400" as="targetPoint" />
          </mxGeometry>
        </mxCell>
        <mxCell id="FyD_ZFn7u8lK-cUSMNLg-162" value="" style="endArrow=none;html=1;rounded=0;entryX=1;entryY=0.5;entryDx=0;entryDy=0;strokeColor=#000000;fillColor=#FFFFFF;shadow=0;" parent="1" target="FyD_ZFn7u8lK-cUSMNLg-158" edge="1">
          <mxGeometry width="50" height="50" relative="1" as="geometry">
            <mxPoint x="360" y="439.9000000000001" as="sourcePoint" />
            <mxPoint x="350" y="440" as="targetPoint" />
          </mxGeometry>
        </mxCell>
        <mxCell id="FyD_ZFn7u8lK-cUSMNLg-163" value="&lt;font&gt;6&lt;/font&gt;" style="text;strokeColor=none;align=center;fillColor=none;html=1;verticalAlign=middle;whiteSpace=wrap;rounded=0;fontColor=#000000;" parent="1" vertex="1">
          <mxGeometry x="333" y="408" height="5" as="geometry" />
        </mxCell>
        <mxCell id="FyD_ZFn7u8lK-cUSMNLg-164" value="" style="endArrow=classic;html=1;rounded=0;strokeColor=#000000;exitX=0.5;exitY=0.5;exitDx=0;exitDy=0;exitPerimeter=0;entryX=0.037;entryY=0.341;entryDx=0;entryDy=0;entryPerimeter=0;" parent="1" source="FyD_ZFn7u8lK-cUSMNLg-158" target="FyD_ZFn7u8lK-cUSMNLg-158" edge="1">
          <mxGeometry width="50" height="50" relative="1" as="geometry">
            <mxPoint x="313" y="440" as="sourcePoint" />
            <mxPoint x="333" y="420" as="targetPoint" />
          </mxGeometry>
        </mxCell>
        <mxCell id="FyD_ZFn7u8lK-cUSMNLg-165" value="&lt;font&gt;7&lt;/font&gt;" style="text;strokeColor=none;align=center;fillColor=none;html=1;verticalAlign=middle;whiteSpace=wrap;rounded=0;fontColor=#000000;" parent="1" vertex="1">
          <mxGeometry x="350" y="427" height="5" as="geometry" />
        </mxCell>
        <mxCell id="FyD_ZFn7u8lK-cUSMNLg-167" value="" style="endArrow=classic;html=1;rounded=0;strokeColor=#000000;exitX=0.5;exitY=0.5;exitDx=0;exitDy=0;exitPerimeter=0;entryX=0.076;entryY=0.696;entryDx=0;entryDy=0;entryPerimeter=0;" parent="1" target="FyD_ZFn7u8lK-cUSMNLg-158" edge="1">
          <mxGeometry width="50" height="50" relative="1" as="geometry">
            <mxPoint x="320" y="440" as="sourcePoint" />
            <mxPoint x="340" y="442.5" as="targetPoint" />
          </mxGeometry>
        </mxCell>
        <mxCell id="FyD_ZFn7u8lK-cUSMNLg-168" value="&lt;font&gt;5&lt;/font&gt;" style="text;strokeColor=none;align=center;fillColor=none;html=1;verticalAlign=middle;whiteSpace=wrap;rounded=0;fontColor=#000000;" parent="1" vertex="1">
          <mxGeometry x="308" y="408" height="5" as="geometry" />
        </mxCell>
        <mxCell id="FyD_ZFn7u8lK-cUSMNLg-169" value="&lt;font&gt;4&lt;/font&gt;" style="text;strokeColor=none;align=center;fillColor=none;html=1;verticalAlign=middle;whiteSpace=wrap;rounded=0;fontColor=#000000;" parent="1" vertex="1">
          <mxGeometry x="291" y="427" height="5" as="geometry" />
        </mxCell>
        <mxCell id="FyD_ZFn7u8lK-cUSMNLg-170" value="&lt;font&gt;8&lt;/font&gt;" style="text;strokeColor=none;align=center;fillColor=none;html=1;verticalAlign=middle;whiteSpace=wrap;rounded=0;fontColor=#0ECC15;" parent="1" vertex="1">
          <mxGeometry x="350" y="450" height="5" as="geometry" />
        </mxCell>
        <mxCell id="FyD_ZFn7u8lK-cUSMNLg-171" value="&lt;font&gt;9&lt;/font&gt;" style="text;strokeColor=none;align=center;fillColor=none;html=1;verticalAlign=middle;whiteSpace=wrap;rounded=0;fontColor=#0ECC15;" parent="1" vertex="1">
          <mxGeometry x="334" y="467" height="5" as="geometry" />
        </mxCell>
        <mxCell id="FyD_ZFn7u8lK-cUSMNLg-172" value="&lt;font&gt;10&lt;/font&gt;" style="text;strokeColor=none;align=center;fillColor=none;html=1;verticalAlign=middle;whiteSpace=wrap;rounded=0;fontColor=#0ECC15;" parent="1" vertex="1">
          <mxGeometry x="307" y="468" height="5" as="geometry" />
        </mxCell>
        <mxCell id="FyD_ZFn7u8lK-cUSMNLg-173" value="&lt;font&gt;11&lt;/font&gt;" style="text;strokeColor=none;align=center;fillColor=none;html=1;verticalAlign=middle;whiteSpace=wrap;rounded=0;fontColor=#0ECC15;" parent="1" vertex="1">
          <mxGeometry x="290" y="452" height="5" as="geometry" />
        </mxCell>
        <mxCell id="FyD_ZFn7u8lK-cUSMNLg-175" value="" style="ellipse;whiteSpace=wrap;html=1;aspect=fixed;strokeColor=#000000;fillColor=#FFFFFF;shadow=0;fontColor=#000000;" parent="1" vertex="1">
          <mxGeometry x="280" y="520" width="80" height="80" as="geometry" />
        </mxCell>
        <mxCell id="FyD_ZFn7u8lK-cUSMNLg-176" value="" style="endArrow=none;html=1;rounded=0;exitX=0;exitY=0.5;exitDx=0;exitDy=0;strokeColor=#000000;fillColor=#FFFFFF;shadow=0;fontColor=#000000;" parent="1" source="FyD_ZFn7u8lK-cUSMNLg-180" edge="1">
          <mxGeometry width="50" height="50" relative="1" as="geometry">
            <mxPoint x="360" y="559.96" as="sourcePoint" />
            <mxPoint x="280" y="560" as="targetPoint" />
          </mxGeometry>
        </mxCell>
        <mxCell id="FyD_ZFn7u8lK-cUSMNLg-177" value="" style="endArrow=none;html=1;rounded=0;entryX=0.5;entryY=1;entryDx=0;entryDy=0;strokeColor=#000000;fillColor=#FFFFFF;shadow=0;fontColor=#000000;" parent="1" target="FyD_ZFn7u8lK-cUSMNLg-180" edge="1">
          <mxGeometry width="50" height="50" relative="1" as="geometry">
            <mxPoint x="319.88" y="600" as="sourcePoint" />
            <mxPoint x="320.12" y="520" as="targetPoint" />
          </mxGeometry>
        </mxCell>
        <mxCell id="FyD_ZFn7u8lK-cUSMNLg-178" value="" style="endArrow=none;html=1;rounded=0;exitX=0;exitY=0;exitDx=0;exitDy=0;strokeColor=#000000;fillColor=#FFFFFF;shadow=0;fontColor=#000000;" parent="1" source="FyD_ZFn7u8lK-cUSMNLg-180" edge="1">
          <mxGeometry width="50" height="50" relative="1" as="geometry">
            <mxPoint x="348" y="588" as="sourcePoint" />
            <mxPoint x="292" y="532" as="targetPoint" />
          </mxGeometry>
        </mxCell>
        <mxCell id="FyD_ZFn7u8lK-cUSMNLg-179" value="" style="endArrow=none;html=1;rounded=0;exitX=1;exitY=0;exitDx=0;exitDy=0;strokeColor=#000000;fillColor=#FFFFFF;shadow=0;fontColor=#000000;" parent="1" source="FyD_ZFn7u8lK-cUSMNLg-180" edge="1">
          <mxGeometry width="50" height="50" relative="1" as="geometry">
            <mxPoint x="291.9999999999999" y="588" as="sourcePoint" />
            <mxPoint x="347.9999999999999" y="532" as="targetPoint" />
          </mxGeometry>
        </mxCell>
        <mxCell id="FyD_ZFn7u8lK-cUSMNLg-180" value="" style="ellipse;whiteSpace=wrap;html=1;aspect=fixed;fillColor=#FFFFFF;strokeColor=#000000;shadow=0;fontColor=#000000;" parent="1" vertex="1">
          <mxGeometry x="295" y="535" width="50" height="50" as="geometry" />
        </mxCell>
        <mxCell id="FyD_ZFn7u8lK-cUSMNLg-181" value="" style="endArrow=none;html=1;rounded=0;entryX=1;entryY=1;entryDx=0;entryDy=0;strokeColor=#000000;fillColor=#FFFFFF;shadow=0;fontColor=#000000;" parent="1" target="FyD_ZFn7u8lK-cUSMNLg-180" edge="1">
          <mxGeometry width="50" height="50" relative="1" as="geometry">
            <mxPoint x="348" y="588" as="sourcePoint" />
            <mxPoint x="340" y="580" as="targetPoint" />
          </mxGeometry>
        </mxCell>
        <mxCell id="FyD_ZFn7u8lK-cUSMNLg-182" value="" style="endArrow=none;html=1;rounded=0;entryX=0;entryY=1;entryDx=0;entryDy=0;strokeColor=#000000;fillColor=#FFFFFF;shadow=0;fontColor=#000000;" parent="1" target="FyD_ZFn7u8lK-cUSMNLg-180" edge="1">
          <mxGeometry width="50" height="50" relative="1" as="geometry">
            <mxPoint x="291.9999999999999" y="588" as="sourcePoint" />
            <mxPoint x="300" y="580" as="targetPoint" />
          </mxGeometry>
        </mxCell>
        <mxCell id="FyD_ZFn7u8lK-cUSMNLg-183" value="" style="endArrow=none;html=1;rounded=0;exitX=0.5;exitY=0;exitDx=0;exitDy=0;strokeColor=#000000;fillColor=#FFFFFF;shadow=0;fontColor=#000000;" parent="1" source="FyD_ZFn7u8lK-cUSMNLg-180" edge="1">
          <mxGeometry width="50" height="50" relative="1" as="geometry">
            <mxPoint x="320" y="530" as="sourcePoint" />
            <mxPoint x="320.12" y="520" as="targetPoint" />
          </mxGeometry>
        </mxCell>
        <mxCell id="FyD_ZFn7u8lK-cUSMNLg-184" value="" style="endArrow=none;html=1;rounded=0;entryX=1;entryY=0.5;entryDx=0;entryDy=0;strokeColor=#000000;fillColor=#FFFFFF;shadow=0;fontColor=#000000;" parent="1" target="FyD_ZFn7u8lK-cUSMNLg-180" edge="1">
          <mxGeometry width="50" height="50" relative="1" as="geometry">
            <mxPoint x="360" y="559.9000000000001" as="sourcePoint" />
            <mxPoint x="350" y="560" as="targetPoint" />
          </mxGeometry>
        </mxCell>
        <mxCell id="FyD_ZFn7u8lK-cUSMNLg-185" value="&lt;font&gt;6&lt;/font&gt;" style="text;strokeColor=none;align=center;fillColor=none;html=1;verticalAlign=middle;whiteSpace=wrap;rounded=0;fontColor=#000000;" parent="1" vertex="1">
          <mxGeometry x="333" y="528" height="5" as="geometry" />
        </mxCell>
        <mxCell id="FyD_ZFn7u8lK-cUSMNLg-186" value="" style="endArrow=classic;html=1;rounded=0;strokeColor=#000000;exitX=0.5;exitY=0.5;exitDx=0;exitDy=0;exitPerimeter=0;entryX=0.676;entryY=0.056;entryDx=0;entryDy=0;entryPerimeter=0;fontColor=#000000;" parent="1" source="FyD_ZFn7u8lK-cUSMNLg-180" target="FyD_ZFn7u8lK-cUSMNLg-180" edge="1">
          <mxGeometry width="50" height="50" relative="1" as="geometry">
            <mxPoint x="313" y="560" as="sourcePoint" />
            <mxPoint x="333" y="540" as="targetPoint" />
          </mxGeometry>
        </mxCell>
        <mxCell id="FyD_ZFn7u8lK-cUSMNLg-187" value="&lt;font&gt;7&lt;/font&gt;" style="text;strokeColor=none;align=center;fillColor=none;html=1;verticalAlign=middle;whiteSpace=wrap;rounded=0;fontColor=#000000;" parent="1" vertex="1">
          <mxGeometry x="350" y="547" height="5" as="geometry" />
        </mxCell>
        <mxCell id="FyD_ZFn7u8lK-cUSMNLg-188" value="" style="endArrow=classic;html=1;rounded=0;strokeColor=#000000;exitX=0.5;exitY=0.5;exitDx=0;exitDy=0;exitPerimeter=0;entryX=0.308;entryY=0.064;entryDx=0;entryDy=0;entryPerimeter=0;fontColor=#000000;" parent="1" target="FyD_ZFn7u8lK-cUSMNLg-180" edge="1">
          <mxGeometry width="50" height="50" relative="1" as="geometry">
            <mxPoint x="320" y="560" as="sourcePoint" />
            <mxPoint x="340" y="562.5" as="targetPoint" />
          </mxGeometry>
        </mxCell>
        <mxCell id="FyD_ZFn7u8lK-cUSMNLg-189" value="&lt;font&gt;5&lt;/font&gt;" style="text;strokeColor=none;align=center;fillColor=none;html=1;verticalAlign=middle;whiteSpace=wrap;rounded=0;fontColor=#FF4747;" parent="1" vertex="1">
          <mxGeometry x="315" y="526" height="5" as="geometry" />
        </mxCell>
        <mxCell id="FyD_ZFn7u8lK-cUSMNLg-190" value="&lt;font&gt;4&lt;/font&gt;" style="text;strokeColor=none;align=center;fillColor=none;html=1;verticalAlign=middle;whiteSpace=wrap;rounded=0;fontColor=#FF4747;" parent="1" vertex="1">
          <mxGeometry x="293" y="539" height="5" as="geometry" />
        </mxCell>
        <mxCell id="FyD_ZFn7u8lK-cUSMNLg-191" value="&lt;font&gt;8&lt;/font&gt;" style="text;strokeColor=none;align=center;fillColor=none;html=1;verticalAlign=middle;whiteSpace=wrap;rounded=0;fontColor=#000000;" parent="1" vertex="1">
          <mxGeometry x="350" y="570" height="5" as="geometry" />
        </mxCell>
        <mxCell id="FyD_ZFn7u8lK-cUSMNLg-192" value="&lt;font&gt;9&lt;/font&gt;" style="text;strokeColor=none;align=center;fillColor=none;html=1;verticalAlign=middle;whiteSpace=wrap;rounded=0;fontColor=#000000;" parent="1" vertex="1">
          <mxGeometry x="334" y="587" height="5" as="geometry" />
        </mxCell>
        <mxCell id="FyD_ZFn7u8lK-cUSMNLg-193" value="&lt;font&gt;10&lt;/font&gt;" style="text;strokeColor=none;align=center;fillColor=none;html=1;verticalAlign=middle;whiteSpace=wrap;rounded=0;fontColor=#000000;" parent="1" vertex="1">
          <mxGeometry x="307" y="588" height="5" as="geometry" />
        </mxCell>
        <mxCell id="FyD_ZFn7u8lK-cUSMNLg-195" value="&lt;font&gt;11&lt;/font&gt;" style="text;strokeColor=none;align=center;fillColor=none;html=1;verticalAlign=middle;whiteSpace=wrap;rounded=0;fontColor=#000000;" parent="1" vertex="1">
          <mxGeometry x="290" y="572" height="5" as="geometry" />
        </mxCell>
        <mxCell id="FyD_ZFn7u8lK-cUSMNLg-217" value="&lt;font color=&quot;#0ecc15&quot;&gt;12&lt;/font&gt;" style="text;strokeColor=none;align=center;fillColor=none;html=1;verticalAlign=middle;whiteSpace=wrap;rounded=0;fontColor=#FF4747;" parent="1" vertex="1">
          <mxGeometry x="288" y="551" height="5" as="geometry" />
        </mxCell>
        <mxCell id="FyD_ZFn7u8lK-cUSMNLg-218" value="&lt;font&gt;13&lt;/font&gt;" style="text;strokeColor=none;align=center;fillColor=none;html=1;verticalAlign=middle;whiteSpace=wrap;rounded=0;fontColor=#0ECC15;" parent="1" vertex="1">
          <mxGeometry x="304" y="529" height="5" as="geometry" />
        </mxCell>
        <mxCell id="FyD_ZFn7u8lK-cUSMNLg-219" value="" style="ellipse;whiteSpace=wrap;html=1;aspect=fixed;strokeColor=#000000;fillColor=#FFFFFF;shadow=0;fontColor=#000000;" parent="1" vertex="1">
          <mxGeometry x="280" y="640" width="80" height="80" as="geometry" />
        </mxCell>
        <mxCell id="FyD_ZFn7u8lK-cUSMNLg-220" value="" style="endArrow=none;html=1;rounded=0;exitX=0;exitY=0.5;exitDx=0;exitDy=0;strokeColor=#000000;fillColor=#FFFFFF;shadow=0;fontColor=#000000;" parent="1" source="FyD_ZFn7u8lK-cUSMNLg-224" edge="1">
          <mxGeometry width="50" height="50" relative="1" as="geometry">
            <mxPoint x="360" y="679.96" as="sourcePoint" />
            <mxPoint x="280" y="680" as="targetPoint" />
          </mxGeometry>
        </mxCell>
        <mxCell id="FyD_ZFn7u8lK-cUSMNLg-221" value="" style="endArrow=none;html=1;rounded=0;entryX=0.5;entryY=1;entryDx=0;entryDy=0;strokeColor=#000000;fillColor=#FFFFFF;shadow=0;fontColor=#000000;" parent="1" target="FyD_ZFn7u8lK-cUSMNLg-224" edge="1">
          <mxGeometry width="50" height="50" relative="1" as="geometry">
            <mxPoint x="319.88" y="720" as="sourcePoint" />
            <mxPoint x="320.12" y="640" as="targetPoint" />
          </mxGeometry>
        </mxCell>
        <mxCell id="FyD_ZFn7u8lK-cUSMNLg-222" value="" style="endArrow=none;html=1;rounded=0;exitX=0;exitY=0;exitDx=0;exitDy=0;strokeColor=#000000;fillColor=#FFFFFF;shadow=0;fontColor=#000000;" parent="1" source="FyD_ZFn7u8lK-cUSMNLg-224" edge="1">
          <mxGeometry width="50" height="50" relative="1" as="geometry">
            <mxPoint x="348" y="708" as="sourcePoint" />
            <mxPoint x="292" y="652" as="targetPoint" />
          </mxGeometry>
        </mxCell>
        <mxCell id="FyD_ZFn7u8lK-cUSMNLg-223" value="" style="endArrow=none;html=1;rounded=0;exitX=1;exitY=0;exitDx=0;exitDy=0;strokeColor=#000000;fillColor=#FFFFFF;shadow=0;fontColor=#000000;" parent="1" source="FyD_ZFn7u8lK-cUSMNLg-224" edge="1">
          <mxGeometry width="50" height="50" relative="1" as="geometry">
            <mxPoint x="291.9999999999999" y="708" as="sourcePoint" />
            <mxPoint x="347.9999999999999" y="652" as="targetPoint" />
          </mxGeometry>
        </mxCell>
        <mxCell id="FyD_ZFn7u8lK-cUSMNLg-224" value="" style="ellipse;whiteSpace=wrap;html=1;aspect=fixed;fillColor=#FFFFFF;strokeColor=#000000;shadow=0;fontColor=#000000;" parent="1" vertex="1">
          <mxGeometry x="295" y="655" width="50" height="50" as="geometry" />
        </mxCell>
        <mxCell id="FyD_ZFn7u8lK-cUSMNLg-225" value="" style="endArrow=none;html=1;rounded=0;entryX=1;entryY=1;entryDx=0;entryDy=0;strokeColor=#000000;fillColor=#FFFFFF;shadow=0;fontColor=#000000;" parent="1" target="FyD_ZFn7u8lK-cUSMNLg-224" edge="1">
          <mxGeometry width="50" height="50" relative="1" as="geometry">
            <mxPoint x="348" y="708" as="sourcePoint" />
            <mxPoint x="340" y="700" as="targetPoint" />
          </mxGeometry>
        </mxCell>
        <mxCell id="FyD_ZFn7u8lK-cUSMNLg-226" value="" style="endArrow=none;html=1;rounded=0;entryX=0;entryY=1;entryDx=0;entryDy=0;strokeColor=#000000;fillColor=#FFFFFF;shadow=0;fontColor=#000000;" parent="1" target="FyD_ZFn7u8lK-cUSMNLg-224" edge="1">
          <mxGeometry width="50" height="50" relative="1" as="geometry">
            <mxPoint x="291.9999999999999" y="708" as="sourcePoint" />
            <mxPoint x="300" y="700" as="targetPoint" />
          </mxGeometry>
        </mxCell>
        <mxCell id="FyD_ZFn7u8lK-cUSMNLg-227" value="" style="endArrow=none;html=1;rounded=0;exitX=0.5;exitY=0;exitDx=0;exitDy=0;strokeColor=#000000;fillColor=#FFFFFF;shadow=0;fontColor=#000000;" parent="1" source="FyD_ZFn7u8lK-cUSMNLg-224" edge="1">
          <mxGeometry width="50" height="50" relative="1" as="geometry">
            <mxPoint x="320" y="650" as="sourcePoint" />
            <mxPoint x="320.12" y="640" as="targetPoint" />
          </mxGeometry>
        </mxCell>
        <mxCell id="FyD_ZFn7u8lK-cUSMNLg-228" value="" style="endArrow=none;html=1;rounded=0;entryX=1;entryY=0.5;entryDx=0;entryDy=0;strokeColor=#000000;fillColor=#FFFFFF;shadow=0;fontColor=#000000;" parent="1" target="FyD_ZFn7u8lK-cUSMNLg-224" edge="1">
          <mxGeometry width="50" height="50" relative="1" as="geometry">
            <mxPoint x="360" y="679.9000000000001" as="sourcePoint" />
            <mxPoint x="350" y="680" as="targetPoint" />
          </mxGeometry>
        </mxCell>
        <mxCell id="FyD_ZFn7u8lK-cUSMNLg-229" value="&lt;font&gt;6&lt;/font&gt;" style="text;strokeColor=none;align=center;fillColor=none;html=1;verticalAlign=middle;whiteSpace=wrap;rounded=0;fontColor=#000000;" parent="1" vertex="1">
          <mxGeometry x="333" y="648" height="5" as="geometry" />
        </mxCell>
        <mxCell id="FyD_ZFn7u8lK-cUSMNLg-230" value="" style="endArrow=classic;html=1;rounded=0;strokeColor=#000000;exitX=0.5;exitY=0.5;exitDx=0;exitDy=0;exitPerimeter=0;entryX=0.068;entryY=0.32;entryDx=0;entryDy=0;entryPerimeter=0;fontColor=#000000;" parent="1" source="FyD_ZFn7u8lK-cUSMNLg-224" target="FyD_ZFn7u8lK-cUSMNLg-224" edge="1">
          <mxGeometry width="50" height="50" relative="1" as="geometry">
            <mxPoint x="313" y="680" as="sourcePoint" />
            <mxPoint x="333" y="660" as="targetPoint" />
          </mxGeometry>
        </mxCell>
        <mxCell id="FyD_ZFn7u8lK-cUSMNLg-231" value="&lt;font&gt;7&lt;/font&gt;" style="text;strokeColor=none;align=center;fillColor=none;html=1;verticalAlign=middle;whiteSpace=wrap;rounded=0;fontColor=#000000;" parent="1" vertex="1">
          <mxGeometry x="350" y="667" height="5" as="geometry" />
        </mxCell>
        <mxCell id="FyD_ZFn7u8lK-cUSMNLg-232" value="" style="endArrow=classic;html=1;rounded=0;strokeColor=#000000;exitX=0.5;exitY=0.5;exitDx=0;exitDy=0;exitPerimeter=0;fontColor=#000000;" parent="1" edge="1">
          <mxGeometry width="50" height="50" relative="1" as="geometry">
            <mxPoint x="320" y="680" as="sourcePoint" />
            <mxPoint x="300" y="690" as="targetPoint" />
          </mxGeometry>
        </mxCell>
        <mxCell id="FyD_ZFn7u8lK-cUSMNLg-235" value="&lt;font&gt;8&lt;/font&gt;" style="text;strokeColor=none;align=center;fillColor=none;html=1;verticalAlign=middle;whiteSpace=wrap;rounded=0;fontColor=#000000;" parent="1" vertex="1">
          <mxGeometry x="350" y="690" height="5" as="geometry" />
        </mxCell>
        <mxCell id="FyD_ZFn7u8lK-cUSMNLg-236" value="&lt;font&gt;9&lt;/font&gt;" style="text;strokeColor=none;align=center;fillColor=none;html=1;verticalAlign=middle;whiteSpace=wrap;rounded=0;fontColor=#000000;" parent="1" vertex="1">
          <mxGeometry x="334" y="707" height="5" as="geometry" />
        </mxCell>
        <mxCell id="FyD_ZFn7u8lK-cUSMNLg-237" value="&lt;font&gt;10&lt;/font&gt;" style="text;strokeColor=none;align=center;fillColor=none;html=1;verticalAlign=middle;whiteSpace=wrap;rounded=0;fontColor=#000000;" parent="1" vertex="1">
          <mxGeometry x="307" y="708" height="5" as="geometry" />
        </mxCell>
        <mxCell id="FyD_ZFn7u8lK-cUSMNLg-239" value="&lt;font&gt;11&lt;/font&gt;" style="text;strokeColor=none;align=center;fillColor=none;html=1;verticalAlign=middle;whiteSpace=wrap;rounded=0;fontColor=#000000;" parent="1" vertex="1">
          <mxGeometry x="290" y="692" height="5" as="geometry" />
        </mxCell>
        <mxCell id="FyD_ZFn7u8lK-cUSMNLg-240" value="&lt;font&gt;12&lt;/font&gt;" style="text;strokeColor=none;align=center;fillColor=none;html=1;verticalAlign=middle;whiteSpace=wrap;rounded=0;fontColor=#FF4747;" parent="1" vertex="1">
          <mxGeometry x="292" y="660" height="5" as="geometry" />
        </mxCell>
        <mxCell id="FyD_ZFn7u8lK-cUSMNLg-241" value="&lt;font&gt;5&lt;/font&gt;" style="text;strokeColor=none;align=center;fillColor=none;html=1;verticalAlign=middle;whiteSpace=wrap;rounded=0;fontColor=#0ECC15;" parent="1" vertex="1">
          <mxGeometry x="302" y="650" height="5" as="geometry" />
        </mxCell>
        <mxCell id="FyD_ZFn7u8lK-cUSMNLg-242" value="&lt;font&gt;13&lt;/font&gt;" style="text;strokeColor=none;align=center;fillColor=none;html=1;verticalAlign=middle;whiteSpace=wrap;rounded=0;fontColor=#FF4747;" parent="1" vertex="1">
          <mxGeometry x="312" y="646" height="5" as="geometry" />
        </mxCell>
        <mxCell id="FyD_ZFn7u8lK-cUSMNLg-243" value="&lt;font&gt;4&lt;/font&gt;" style="text;strokeColor=none;align=center;fillColor=none;html=1;verticalAlign=middle;whiteSpace=wrap;rounded=0;fontColor=#0ECC15;" parent="1" vertex="1">
          <mxGeometry x="289" y="671" height="5" as="geometry" />
        </mxCell>
        <mxCell id="FyD_ZFn7u8lK-cUSMNLg-244" value="" style="ellipse;whiteSpace=wrap;html=1;aspect=fixed;strokeColor=#000000;fillColor=#FFFFFF;shadow=0;fontColor=#000000;" parent="1" vertex="1">
          <mxGeometry x="280" y="760" width="80" height="80" as="geometry" />
        </mxCell>
        <mxCell id="FyD_ZFn7u8lK-cUSMNLg-245" value="" style="endArrow=none;html=1;rounded=0;exitX=0;exitY=0.5;exitDx=0;exitDy=0;strokeColor=#000000;fillColor=#FFFFFF;shadow=0;fontColor=#000000;" parent="1" source="FyD_ZFn7u8lK-cUSMNLg-249" edge="1">
          <mxGeometry width="50" height="50" relative="1" as="geometry">
            <mxPoint x="360" y="799.96" as="sourcePoint" />
            <mxPoint x="280" y="800" as="targetPoint" />
          </mxGeometry>
        </mxCell>
        <mxCell id="FyD_ZFn7u8lK-cUSMNLg-246" value="" style="endArrow=none;html=1;rounded=0;entryX=0.5;entryY=1;entryDx=0;entryDy=0;strokeColor=#000000;fillColor=#FFFFFF;shadow=0;fontColor=#000000;" parent="1" target="FyD_ZFn7u8lK-cUSMNLg-249" edge="1">
          <mxGeometry width="50" height="50" relative="1" as="geometry">
            <mxPoint x="319.88" y="840" as="sourcePoint" />
            <mxPoint x="320.12" y="760" as="targetPoint" />
          </mxGeometry>
        </mxCell>
        <mxCell id="FyD_ZFn7u8lK-cUSMNLg-247" value="" style="endArrow=none;html=1;rounded=0;exitX=0;exitY=0;exitDx=0;exitDy=0;strokeColor=#000000;fillColor=#FFFFFF;shadow=0;fontColor=#000000;" parent="1" source="FyD_ZFn7u8lK-cUSMNLg-249" edge="1">
          <mxGeometry width="50" height="50" relative="1" as="geometry">
            <mxPoint x="348" y="828" as="sourcePoint" />
            <mxPoint x="292" y="772" as="targetPoint" />
          </mxGeometry>
        </mxCell>
        <mxCell id="FyD_ZFn7u8lK-cUSMNLg-248" value="" style="endArrow=none;html=1;rounded=0;exitX=1;exitY=0;exitDx=0;exitDy=0;strokeColor=#000000;fillColor=#FFFFFF;shadow=0;fontColor=#000000;" parent="1" source="FyD_ZFn7u8lK-cUSMNLg-249" edge="1">
          <mxGeometry width="50" height="50" relative="1" as="geometry">
            <mxPoint x="291.9999999999999" y="828" as="sourcePoint" />
            <mxPoint x="347.9999999999999" y="772" as="targetPoint" />
          </mxGeometry>
        </mxCell>
        <mxCell id="FyD_ZFn7u8lK-cUSMNLg-249" value="" style="ellipse;whiteSpace=wrap;html=1;aspect=fixed;fillColor=#FFFFFF;strokeColor=#000000;shadow=0;fontColor=#000000;" parent="1" vertex="1">
          <mxGeometry x="295" y="775" width="50" height="50" as="geometry" />
        </mxCell>
        <mxCell id="FyD_ZFn7u8lK-cUSMNLg-250" value="" style="endArrow=none;html=1;rounded=0;entryX=1;entryY=1;entryDx=0;entryDy=0;strokeColor=#000000;fillColor=#FFFFFF;shadow=0;fontColor=#000000;" parent="1" target="FyD_ZFn7u8lK-cUSMNLg-249" edge="1">
          <mxGeometry width="50" height="50" relative="1" as="geometry">
            <mxPoint x="348" y="828" as="sourcePoint" />
            <mxPoint x="340" y="820" as="targetPoint" />
          </mxGeometry>
        </mxCell>
        <mxCell id="FyD_ZFn7u8lK-cUSMNLg-251" value="" style="endArrow=none;html=1;rounded=0;entryX=0;entryY=1;entryDx=0;entryDy=0;strokeColor=#000000;fillColor=#FFFFFF;shadow=0;fontColor=#000000;" parent="1" target="FyD_ZFn7u8lK-cUSMNLg-249" edge="1">
          <mxGeometry width="50" height="50" relative="1" as="geometry">
            <mxPoint x="291.9999999999999" y="828" as="sourcePoint" />
            <mxPoint x="300" y="820" as="targetPoint" />
          </mxGeometry>
        </mxCell>
        <mxCell id="FyD_ZFn7u8lK-cUSMNLg-252" value="" style="endArrow=none;html=1;rounded=0;exitX=0.5;exitY=0;exitDx=0;exitDy=0;strokeColor=#000000;fillColor=#FFFFFF;shadow=0;fontColor=#000000;" parent="1" source="FyD_ZFn7u8lK-cUSMNLg-249" edge="1">
          <mxGeometry width="50" height="50" relative="1" as="geometry">
            <mxPoint x="320" y="770" as="sourcePoint" />
            <mxPoint x="320.12" y="760" as="targetPoint" />
          </mxGeometry>
        </mxCell>
        <mxCell id="FyD_ZFn7u8lK-cUSMNLg-253" value="" style="endArrow=none;html=1;rounded=0;entryX=1;entryY=0.5;entryDx=0;entryDy=0;strokeColor=#000000;fillColor=#FFFFFF;shadow=0;fontColor=#000000;" parent="1" target="FyD_ZFn7u8lK-cUSMNLg-249" edge="1">
          <mxGeometry width="50" height="50" relative="1" as="geometry">
            <mxPoint x="360" y="799.9000000000001" as="sourcePoint" />
            <mxPoint x="350" y="800" as="targetPoint" />
          </mxGeometry>
        </mxCell>
        <mxCell id="FyD_ZFn7u8lK-cUSMNLg-254" value="&lt;font&gt;6&lt;/font&gt;" style="text;strokeColor=none;align=center;fillColor=none;html=1;verticalAlign=middle;whiteSpace=wrap;rounded=0;fontColor=#000000;" parent="1" vertex="1">
          <mxGeometry x="333" y="768" height="5" as="geometry" />
        </mxCell>
        <mxCell id="FyD_ZFn7u8lK-cUSMNLg-255" value="" style="endArrow=classic;html=1;rounded=0;strokeColor=#000000;exitX=0.5;exitY=0.5;exitDx=0;exitDy=0;exitPerimeter=0;entryX=0.068;entryY=0.32;entryDx=0;entryDy=0;entryPerimeter=0;fontColor=#000000;" parent="1" source="FyD_ZFn7u8lK-cUSMNLg-249" target="FyD_ZFn7u8lK-cUSMNLg-249" edge="1">
          <mxGeometry width="50" height="50" relative="1" as="geometry">
            <mxPoint x="313" y="800" as="sourcePoint" />
            <mxPoint x="333" y="780" as="targetPoint" />
          </mxGeometry>
        </mxCell>
        <mxCell id="FyD_ZFn7u8lK-cUSMNLg-256" value="&lt;font&gt;7&lt;/font&gt;" style="text;strokeColor=none;align=center;fillColor=none;html=1;verticalAlign=middle;whiteSpace=wrap;rounded=0;fontColor=#000000;" parent="1" vertex="1">
          <mxGeometry x="350" y="787" height="5" as="geometry" />
        </mxCell>
        <mxCell id="FyD_ZFn7u8lK-cUSMNLg-257" value="" style="endArrow=classic;html=1;rounded=0;strokeColor=#000000;exitX=0.5;exitY=0.5;exitDx=0;exitDy=0;exitPerimeter=0;fontColor=#000000;" parent="1" edge="1">
          <mxGeometry width="50" height="50" relative="1" as="geometry">
            <mxPoint x="320" y="800" as="sourcePoint" />
            <mxPoint x="300" y="810" as="targetPoint" />
          </mxGeometry>
        </mxCell>
        <mxCell id="FyD_ZFn7u8lK-cUSMNLg-258" value="&lt;font&gt;8&lt;/font&gt;" style="text;strokeColor=none;align=center;fillColor=none;html=1;verticalAlign=middle;whiteSpace=wrap;rounded=0;fontColor=#000000;" parent="1" vertex="1">
          <mxGeometry x="350" y="810" height="5" as="geometry" />
        </mxCell>
        <mxCell id="FyD_ZFn7u8lK-cUSMNLg-259" value="&lt;font&gt;9&lt;/font&gt;" style="text;strokeColor=none;align=center;fillColor=none;html=1;verticalAlign=middle;whiteSpace=wrap;rounded=0;fontColor=#000000;" parent="1" vertex="1">
          <mxGeometry x="334" y="827" height="5" as="geometry" />
        </mxCell>
        <mxCell id="FyD_ZFn7u8lK-cUSMNLg-260" value="&lt;font&gt;10&lt;/font&gt;" style="text;strokeColor=none;align=center;fillColor=none;html=1;verticalAlign=middle;whiteSpace=wrap;rounded=0;fontColor=#000000;" parent="1" vertex="1">
          <mxGeometry x="307" y="828" height="5" as="geometry" />
        </mxCell>
        <mxCell id="FyD_ZFn7u8lK-cUSMNLg-262" value="&lt;font&gt;11&lt;/font&gt;" style="text;strokeColor=none;align=center;fillColor=none;html=1;verticalAlign=middle;whiteSpace=wrap;rounded=0;fontColor=#000000;" parent="1" vertex="1">
          <mxGeometry x="290" y="812" height="5" as="geometry" />
        </mxCell>
        <mxCell id="FyD_ZFn7u8lK-cUSMNLg-264" value="&lt;font&gt;5&lt;/font&gt;" style="text;strokeColor=none;align=center;fillColor=none;html=1;verticalAlign=middle;whiteSpace=wrap;rounded=0;fontColor=#000000;" parent="1" vertex="1">
          <mxGeometry x="308" y="768" height="5" as="geometry" />
        </mxCell>
        <mxCell id="FyD_ZFn7u8lK-cUSMNLg-266" value="&lt;font&gt;4&lt;/font&gt;" style="text;strokeColor=none;align=center;fillColor=none;html=1;verticalAlign=middle;whiteSpace=wrap;rounded=0;fontColor=#000000;" parent="1" vertex="1">
          <mxGeometry x="291" y="786" height="5" as="geometry" />
        </mxCell>
      </root>
    </mxGraphModel>
  </diagram>
</mxfile>
